<svg width="70" height="70" viewBox="0 0 70 70" xmlns="http://www.w3.org/2000/svg">
  <rect width="70" height="70" rx="20" fill="#10B981"/>
  <path d="M27 24C22.5 24 19 27.5 19 32C19 36.5 22.5 40 27 40H32V35H27C25.3 35 24 33.7 24 32C24 30.3 25.3 29 27 29H38C39.7 29 41 30.3 41 32C41 33 40.5 33.9 39.7 34.5L43.2 38C45.1 36.6 46 34.4 46 32C46 27.5 42.5 24 38 24H27Z" fill="white"/>
  <path d="M43 30H38V35H43C44.7 35 46 36.3 46 38C46 39.7 44.7 41 43 41H32C30.3 41 29 39.7 29 38C29 37 29.5 36.1 30.3 35.5L26.8 32C24.9 33.4 24 35.6 24 38C24 42.5 27.5 46 32 46H43C47.5 46 51 42.5 51 38C51 33.5 47.5 30 43 30Z" fill="white" opacity="0.92"/>
</svg>
